<svg id="eoeQcSDUF061" xmlns="http://www.w3.org/2000/svg" xmlns:xlink="http://www.w3.org/1999/xlink" viewBox="0 0 300 300" shape-rendering="geometricPrecision" text-rendering="geometricPrecision"><path d="M11.40707,152.82843c-1.5621-1.5621-1.5621-4.09476,0-5.65685l135.7645-135.7645c1.5621-1.5621,4.09476-1.5621,5.65685,0l135.7645,135.7645c1.5621,1.5621,1.5621,4.09476,0,5.65685l-135.7645,135.7645c-1.5621,1.5621-4.09476,1.5621-5.65685,0L11.40707,152.82843Zm135.8429,112.02484c1.5188,1.5188,3.98125,1.5188,5.50005,0L264.85326,152.75003c1.5188-1.5188,1.5188-3.98125,0-5.50005L152.75002,35.14674c-1.5188-1.5188-3.98125-1.5188-5.50005,0L35.14673,147.24998c-1.5188,1.5188-1.5188,3.98125,0,5.50005L147.24997,264.85327Z" transform="translate(.000001 0.000001)" stroke-width="0"/></svg>
